/* XPM */
static char *_0e55a9b79af4abfc251204b873a017fsTZN2tlKZmsIcxhC[] = {
/* columns rows colors chars-per-pixel */
"32 32 16 1 ",
"  c #382F24",
". c #433119",
"X c #4D381C",
"o c #4D401F",
"O c #5E4522",
"+ c #664839",
"@ c #736244",
"# c #916A3B",
"$ c #85755C",
"% c #948465",
"& c #BA9961",
"* c #A1957A",
"= c #ABA589",
"- c #ADB591",
"; c #ECD093",
": c #C7C5A7",
/* pixels */
"XoOoXXXoOOOOOoXXXoOoXXXoOOOOOoXO",
"-==$+X%;:----=*--==$+X%;:----=*-",
"=***@o;:-------==***@o;:-------=",
"$###@O:=$$$$$$$$$###@o:=$$$$$$$$",
"$$$#@O=$$$$$$$$$$$$#@O=$$$$$$$$$",
"$$$#@O*$$$$$$$$$$$$#@O*$$$$$$$$$",
"$$$#@O*$$$$$$$$$$$$#@O*$$$$$$$$$",
"OOOoXXXoOoXXXoOOOOOoXXXoOoXXXoOO",
"---=*--==$+X%;:----=*--==$+X%;:-",
"-----==***@o;:-------==***@o;:--",
"$$$$$$$###@O:=$$$$$$$$$###@o:=$$",
"$$$$$$$$$#@O=$$$$$$$$$$$$#@O=$$$",
"$$$$$$$$$#@O*$$$$$$$$$$$$#@O*$$@",
"$$$$$$$$$#@O*$$$$$$$$$$$$#@O*$$@",
"XoOoXXXoOOOOOoXXXoOoXXXoOOOOOoXX",
"-==$+X%;:----=*--==$+X%;:----=*-",
"=***@o;:-------==***@o;:-------=",
"$###@O:=$$$$$$$$$###@o:=$$$$$$$$",
"$$$#@O=$$$$$$$$$$$$#@O=$$$$$$$$$",
"$$$#@O*$$$$$$$$$$$$#@O*$$$$$$$$$",
"$$$#@O*$$$$$$$$$$$$#@O*$$$$$$$$$",
"OOOoXXXoOoXXXoOOOOOoXXXoOoXXXoOO",
"---=*--==$+X%;:----=*--==$+X%:=-",
"-----==***@o;:-------==***@o:&--",
"$$$$$$$###@O:=$$$$$$$$$###@O=$$$",
"$$$$$$$$$#@O=$$$$$$$$$$$$#@O=$$$",
"$$$$$$$$$#@O*$$$$$$$$$$$$#@O=$$$",
"$$$#$#$$$#@O*$$$$#$$$#$$$#@O=$$$",
"$$###$#$##@O*$$###$#$#$#$#@O=#$#",
"#@########OXO####@########OXO###",
"OOOoXXXoOoXXXoOOOOOoXXXoOoXXXoOO",
"..     ... ..  ..... ..      . ."
};
