/* XPM */
static char *_0d1549826c34c05abe3b131f34495f3DqAeyVNS9MbAYgP8[] = {
/* columns rows colors chars-per-pixel */
"32 32 34 1 ",
"  c #2D350B",
". c #3B2717",
"X c #372C11",
"o c #3D2C11",
"O c #3C3B15",
"+ c #422A10",
"@ c #4A3A13",
"# c #433119",
"$ c #4D381C",
"% c #34471E",
"& c #4E4119",
"* c #4D401F",
"= c #56451A",
"- c #5F4E1D",
"; c #445119",
": c #63521F",
"> c #7F5F1B",
", c #5E4522",
"< c #685822",
"1 c #664839",
"2 c #5B7229",
"3 c #78652B",
"4 c #7D722E",
"5 c #595652",
"6 c #736244",
"7 c #7A6E58",
"8 c #916A3B",
"9 c #85755C",
"0 c #948465",
"q c #9A8B6E",
"w c #A1957A",
"e c #C5A260",
"r c #C3C1A2",
"t c #C7C5A7",
/* pixels */
",,,,,,,,,,,,,,,,,,,,,,,,,,,,,o..",
"wqwq000#twqwq000000q#twqwq0000#t",
"9999997*w99999999997*w99999999*w",
"9999997*q99999999997*q99998999*q",
"9797978*w99979979798*w99797997*w",
"8797838*q98979787983*q79978787*q",
"3888333$093878738833$078883838$0",
"*$**$*$#$*$********$#$****$*$$$$",
"O6rwq0q06X=4<:<:-q--6Xrewqqq0096",
";re099999O4::-=9===&&Oeq99979797",
"Ow0979776O<:-==&=7@&6OO997777676",
"Oq0997766O:0==&97@7@5O*157676666",
"*09977676O09===777676O  O OOOO11",
" 99776765OO999&77@765XO4><:::-91",
"O 9977655**O69976665*O2<q0===976",
"@&*O%O---<:&O665655**O=q097=7767",
"761*@><:-=&@&O***11wq711997&7676",
"61*@4>q-===&6@6*erw09976O9776766",
"1*+-eq-=97@7@761rw099766OO165651",
"-=19:09=99767651w0997675O4:-==wq",
"=@179976766&651*099767614:<---99",
"7@@OO77777765O *O6697661q-99==76",
"6&6@  O666;OOq9O*OO7665*0=79&777",
"6655-<:O  Owq9977O  OO***O66@776",
"55-<:--- eqq977765 1qwqq00111666",
"e<:-====Oq9977765O1e099999765500",
"-9=79&7&@17665111*r0997767661req",
"99&777@765*111@:-Oq997767665 eq0",
"66@97676511@<:-==&1O766651O  *11",
"1OOO6665*6>:-=9===&*OO1O16wq05re",
"q0q71O  640-=9=7&7&1*O6wq09995eq",
"7997676 eq09=9777@66*6e099767O07"
};
